<svg width="35" height="35" viewBox="0 0 35 35" fill="none" xmlns="http://www.w3.org/2000/svg">
<path d="M16.0416 10.2083H18.9583V13.125H16.0416V10.2083ZM16.0416 16.0416H18.9583V24.7916H16.0416V16.0416ZM17.5 2.91663C9.44996 2.91663 2.91663 9.44996 2.91663 17.5C2.91663 25.55 9.44996 32.0833 17.5 32.0833C25.55 32.0833 32.0833 25.55 32.0833 17.5C32.0833 9.44996 25.55 2.91663 17.5 2.91663ZM17.5 29.1666C11.0687 29.1666 5.83329 23.9312 5.83329 17.5C5.83329 11.0687 11.0687 5.83329 17.5 5.83329C23.9312 5.83329 29.1666 11.0687 29.1666 17.5C29.1666 23.9312 23.9312 29.1666 17.5 29.1666Z" fill="#3A3541" fill-opacity="0.54"/>
</svg>
