<svg width="31" height="31" viewBox="0 0 31 31" fill="none" xmlns="http://www.w3.org/2000/svg">
<path d="M14.0416 8.20829H16.9583V11.125H14.0416V8.20829ZM14.0416 14.0416H16.9583V22.7916H14.0416V14.0416ZM15.5 0.916626C7.44996 0.916626 0.916626 7.44996 0.916626 15.5C0.916626 23.55 7.44996 30.0833 15.5 30.0833C23.55 30.0833 30.0833 23.55 30.0833 15.5C30.0833 7.44996 23.55 0.916626 15.5 0.916626ZM15.5 27.1666C9.06871 27.1666 3.83329 21.9312 3.83329 15.5C3.83329 9.06871 9.06871 3.83329 15.5 3.83329C21.9312 3.83329 27.1666 9.06871 27.1666 15.5C27.1666 21.9312 21.9312 27.1666 15.5 27.1666Z" fill="#3A3541" fill-opacity="0.54"/>
</svg>
