<svg width="35" height="35" viewBox="0 0 35 35" fill="none" xmlns="http://www.w3.org/2000/svg">
<path d="M16.0417 10.2083H18.9584V13.125H16.0417V10.2083ZM16.0417 16.0416H18.9584V24.7916H16.0417V16.0416ZM17.5 2.91663C9.45002 2.91663 2.91669 9.44996 2.91669 17.5C2.91669 25.55 9.45002 32.0833 17.5 32.0833C25.55 32.0833 32.0834 25.55 32.0834 17.5C32.0834 9.44996 25.55 2.91663 17.5 2.91663ZM17.5 29.1666C11.0688 29.1666 5.83335 23.9312 5.83335 17.5C5.83335 11.0687 11.0688 5.83329 17.5 5.83329C23.9313 5.83329 29.1667 11.0687 29.1667 17.5C29.1667 23.9312 23.9313 29.1666 17.5 29.1666Z" fill="white"/>
</svg>
