<svg width="30" height="22" viewBox="0 0 30 22" fill="none" xmlns="http://www.w3.org/2000/svg">
<path fill-rule="evenodd" clip-rule="evenodd" d="M16.6735 0.672947C15.1772 0.669578 13.6944 0.673444 12.8919 0.694749C11.886 0.721454 11.0277 1.09987 10.384 1.52558C9.74504 1.94819 9.26286 2.4529 8.99392 2.82901L8.98227 2.8453L6.88863 6.03583L2.8173 7.23209C2.24069 7.37508 1.75784 7.53218 1.40657 7.75496C1.2139 7.87715 1.01522 8.04682 0.870622 8.28858C0.71922 8.5417 0.671176 8.79983 0.671176 9.02316L0.671143 13.1823L0.67121 13.1905C0.679107 14.154 1.17864 14.8873 1.83612 15.3444C2.46991 15.7851 3.25847 15.9843 4.00001 15.9843H5.00001V14.9843C5.00001 14.2936 5.25098 13.8351 5.57848 13.5387C5.92305 13.2268 6.40678 13.0474 6.91619 13.041C7.42525 13.0346 7.8983 13.2014 8.23229 13.5009C8.5487 13.7847 8.80734 14.2462 8.80734 14.9843V15.9843H19.839V14.9843C19.839 13.6711 20.7995 12.9487 21.8679 12.9178C22.3988 12.9024 22.8878 13.0693 23.233 13.3796C23.5614 13.6748 23.839 14.17 23.839 14.9843V15.9843H27.5949L28.6495 12.2643V10.8997L28.6492 10.888L28.6476 10.8059C28.6466 10.7519 28.6451 10.6739 28.6435 10.5785C28.6404 10.3876 28.6365 10.1276 28.634 9.85031C28.6287 9.27464 28.6299 8.68882 28.6469 8.45374C28.6469 8.45374 28.6474 8.44683 28.6503 8.43205C28.6533 8.41686 28.6581 8.39634 28.6657 8.36991C28.6814 8.31553 28.7045 8.25012 28.7362 8.17045C28.7634 8.10212 28.7916 8.03625 28.8238 7.96119L28.8428 7.91675C28.8787 7.8327 28.9251 7.72333 28.9623 7.61745L29.3289 6.57265L25.9758 5.76717L25.2185 4.01436C24.3803 1.89997 22.2943 0.710725 20.4913 0.694437C19.5703 0.686118 18.1081 0.676176 16.6735 0.672947ZM12.945 2.69404C13.5507 2.67796 14.5815 2.67203 15.7258 2.67188C15.737 2.924 15.748 3.21798 15.7565 3.54166C15.7779 4.36197 15.7824 5.35952 15.7341 6.34462L15.0762 6.36831C13.7702 6.41564 12.2952 6.4691 11.5304 6.4691C10.9781 6.4691 10.5304 6.91682 10.5304 7.4691C10.5304 8.02139 10.9781 8.4691 11.5304 8.4691C12.3327 8.4691 13.8858 8.41285 15.2097 8.36491L15.5646 8.35208C15.4424 9.49828 15.2759 10.8412 15.1238 12.0135C15.0237 12.7843 14.9304 13.4769 14.8611 13.9843H10.701C10.5218 13.1788 10.1238 12.5108 9.56761 12.012C8.81272 11.335 7.83394 11.0293 6.89116 11.0411C5.94874 11.0529 4.98064 11.3822 4.23633 12.0559C3.73427 12.5104 3.35676 13.1017 3.15785 13.806C3.09196 13.7745 3.03162 13.7397 2.97785 13.7023C2.76257 13.5526 2.67378 13.3859 2.67118 13.1774V9.35764L2.70722 9.34454C2.8509 9.29338 3.04832 9.23496 3.31758 9.16862L3.33905 9.16334L8.15756 7.74754L10.6309 3.97831C10.7645 3.79635 11.0651 3.47298 11.4873 3.19375C11.9159 2.9103 12.4147 2.70812 12.945 2.69404ZM17.7558 3.48944C17.748 3.19154 17.7382 2.9177 17.7279 2.67644C18.7874 2.68097 19.7832 2.68812 20.4732 2.69436C21.5182 2.7038 22.8465 3.4448 23.3632 4.76156L23.3694 4.77733L24.5364 7.4783L26.6981 7.99758C26.6764 8.09756 26.6598 8.20248 26.6521 8.30964C26.6279 8.64394 26.6291 9.32239 26.6341 9.86863C26.6367 10.1524 26.6406 10.4177 26.6438 10.6119C26.6454 10.7091 26.6469 10.7887 26.648 10.844L26.6495 10.9205V11.9863L26.0831 13.9843H25.7404C25.563 13.1253 25.1534 12.4165 24.57 11.8922C23.7902 11.1913 22.7792 10.8906 21.8101 10.9186C20.1427 10.9669 18.3949 12.023 17.948 13.9843H16.8796C16.944 13.5095 17.0232 12.9177 17.1071 12.271C17.2712 11.0067 17.4552 9.52021 17.5825 8.28654C17.9779 8.27386 18.412 8.25803 18.835 8.2367C19.5837 8.19896 20.3955 8.14032 20.8977 8.02933C21.437 7.91014 21.7775 7.37636 21.6583 6.83709C21.5391 6.29781 21.0053 5.95727 20.4661 6.07646C20.1551 6.1452 19.5123 6.20002 18.7343 6.23924C18.4017 6.25601 18.0625 6.26924 17.7392 6.28027C17.7829 5.27856 17.7768 4.29085 17.7558 3.48944Z" fill="#56CA00"/>
<path d="M4.8429 19.3281C4.29061 19.3281 3.8429 19.7758 3.8429 20.3281C3.8429 20.8804 4.29061 21.3281 4.8429 21.3281H24.8429C25.3952 21.3281 25.8429 20.8804 25.8429 20.3281C25.8429 19.7758 25.3952 19.3281 24.8429 19.3281H4.8429Z" fill="#56CA00"/>
</svg>
