<svg width="35" height="35" viewBox="0 0 35 35" fill="none" xmlns="http://www.w3.org/2000/svg">
<path d="M25.8873 16.2533V12.6511L18.2603 8.28906V11.8679L25.8873 16.2533Z" fill="#3A3541" fill-opacity="0.54"/>
<path fill-rule="evenodd" clip-rule="evenodd" d="M3.22656 8C3.22656 5.23858 5.46514 3 8.22656 3H27.2266C29.988 3 32.2266 5.23858 32.2266 8V17.9289C32.2266 19.255 31.6998 20.5268 30.7621 21.4645L21.691 30.5355C20.7533 31.4732 19.4816 32 18.1555 32H8.22656C5.46514 32 3.22656 29.7614 3.22656 27V8ZM8.22656 5H27.2266C28.8834 5 30.2266 6.34315 30.2266 8V17.9289C30.2266 18.3061 30.1555 18.676 30.0209 19.0206C29.9545 19.0072 29.8849 19 29.8123 19H25.8873V17.3326L18.2603 12.9705V16.5494L22.8541 19.1907C22.457 19.3038 22.08 19.4648 21.7298 19.667L18.2603 17.6823V21.2611L19.6233 22.0448C19.4979 22.3397 19.4 22.6491 19.3328 22.9699L18.6719 22.5919L17.7286 23.1341L12.6961 20.2411V14.4553L17.1973 11.8679V8.28906L9.57031 12.6511V22.0453L17.7286 26.7113L19.2266 25.8546V29.5858C19.2266 29.6584 19.2337 29.728 19.2472 29.7943C18.9025 29.929 18.5327 30 18.1555 30H8.22656C6.56971 30 5.22656 28.6569 5.22656 27V8C5.22656 6.34315 6.56971 5 8.22656 5Z" fill="#3A3541" fill-opacity="0.54"/>
</svg>
