<svg width="35" height="35" viewBox="0 0 35 35" fill="none" xmlns="http://www.w3.org/2000/svg">
<path fill-rule="evenodd" clip-rule="evenodd" d="M4.86667 8.00784C4.86667 6.83233 5.83233 5.86667 7.00784 5.86667H28.5294C29.0973 5.86667 29.6419 6.09225 30.0434 6.4938C30.445 6.89535 30.6706 7.43997 30.6706 8.00784V23.3794C30.6702 23.7549 30.5711 24.1237 30.3832 24.4488C30.1953 24.7739 29.9252 25.0438 29.6 25.2315C29.1536 25.4893 29.0006 26.0601 29.2584 26.5065C29.5161 26.9529 30.0869 27.1059 30.5333 26.8481C31.142 26.4967 31.6475 25.9914 31.9993 25.3829C32.351 24.7744 32.5365 24.0842 32.5372 23.3813V8.00784C32.5372 6.9449 32.115 5.92549 31.3634 5.17387C30.6118 4.42225 29.5924 4 28.5294 4H7.00784C4.8014 4 3 5.8014 3 8.00784V23.3804C3 24.4433 3.42225 25.4627 4.17387 26.2144C4.92549 26.966 5.9449 27.3882 7.00784 27.3882H14.6941C15.2096 27.3882 15.6274 26.9704 15.6274 26.4549C15.6274 25.9394 15.2096 25.5216 14.6941 25.5216H7.00784C6.43997 25.5216 5.89535 25.296 5.4938 24.8944C5.09225 24.4929 4.86667 23.9483 4.86667 23.3804V8.00784ZM8.5451 10.149C8.02963 10.149 7.61176 10.5669 7.61176 11.0824C7.61176 11.5978 8.02963 12.0157 8.5451 12.0157H26.9922C27.5076 12.0157 27.9255 11.5978 27.9255 11.0824C27.9255 10.5669 27.5076 10.149 26.9922 10.149H8.5451ZM8.5451 14.7608C8.02963 14.7608 7.61176 15.1786 7.61176 15.6941C7.61176 16.2096 8.02963 16.6274 8.5451 16.6274H13.1569C13.6723 16.6274 14.0902 16.2096 14.0902 15.6941C14.0902 15.1786 13.6723 14.7608 13.1569 14.7608H8.5451ZM8.5451 19.3725C8.02963 19.3725 7.61176 19.7904 7.61176 20.3059C7.61176 20.8213 8.02963 21.2392 8.5451 21.2392H11.6196C12.1351 21.2392 12.5529 20.8213 12.5529 20.3059C12.5529 19.7904 12.1351 19.3725 11.6196 19.3725H8.5451ZM18.4594 16.3849C19.4993 15.345 20.9097 14.7608 22.3804 14.7608C23.851 14.7608 25.2615 15.345 26.3014 16.3849C27.3413 17.4248 27.9255 18.8352 27.9255 20.3059C27.9255 21.7351 27.3737 23.1074 26.3882 24.1381L26.3882 24.149V31.0667C26.3882 31.4202 26.1885 31.7434 25.8723 31.9015C25.5561 32.0596 25.1777 32.0254 24.8949 31.8133L22.3804 29.9274L19.8659 31.8133C19.5831 32.0254 19.2047 32.0596 18.8885 31.9015C18.5723 31.7434 18.3725 31.4202 18.3725 31.0667V24.149L18.3726 24.1381C17.3871 23.1074 16.8353 21.7351 16.8353 20.3059C16.8353 18.8352 17.4195 17.4248 18.4594 16.3849ZM22.3804 25.851C23.1228 25.851 23.8498 25.7021 24.5216 25.4209V29.2L22.9404 28.0141C22.6085 27.7652 22.1522 27.7652 21.8204 28.0141L20.2392 29.2V25.4209C20.911 25.7021 21.638 25.851 22.3804 25.851ZM22.3804 16.6274C21.4048 16.6274 20.4692 17.015 19.7793 17.7048C19.0895 18.3947 18.702 19.3303 18.702 20.3059C18.702 21.2815 19.0895 22.2171 19.7793 22.9069C20.4692 23.5968 21.4048 23.9843 22.3804 23.9843C23.356 23.9843 24.2916 23.5968 24.9814 22.9069C25.6713 22.2171 26.0588 21.2815 26.0588 20.3059C26.0588 19.3303 25.6713 18.3947 24.9814 17.7048C24.2916 17.015 23.356 16.6274 22.3804 16.6274Z" fill="#3A3541" fill-opacity="0.54"/>
</svg>
