<svg width="30" height="25" viewBox="0 0 30 25" fill="none" xmlns="http://www.w3.org/2000/svg">
<path d="M11.5 1C11.5 0.447715 11.9477 0 12.5 0H20.5C21.0523 0 21.5 0.447715 21.5 1C21.5 1.55228 21.0523 2 20.5 2H17.5V5H15.5V2H12.5C11.9477 2 11.5 1.55228 11.5 1Z" fill="#56CA00"/>
<path d="M0 12C0 11.4477 0.447715 11 1 11C1.55228 11 2 11.4477 2 12V15H5V17H2V20C2 20.5523 1.55228 21 1 21C0.447715 21 0 20.5523 0 20V12Z" fill="#56CA00"/>
<path fill-rule="evenodd" clip-rule="evenodd" d="M6 11.5625C6 10.4579 6.89521 9.5625 7.99978 9.5625H9.5C10.1717 9.5625 10.5433 8.77534 10.7486 7.94104C11.0088 6.88355 11.8715 6 12.9605 6H19.8656C21.0213 6 21.8964 6.99365 22.1318 8.1251C22.2904 8.88748 22.6152 9.5625 23.2681 9.5625H28.0002C29.1047 9.5625 30 10.4579 30 11.5625V18.25C30 19.3546 29.1046 20.25 28 20.25H25.8279C25.0233 20.25 24.2969 20.7323 23.9847 21.4739L23.0153 23.7761C22.7031 24.5177 21.9767 25 21.1721 25H13.7075C12.9649 25 12.2835 24.5886 11.9376 23.9315L11.5624 23.2185C11.2165 22.5614 10.5351 22.15 9.79254 22.15H8C6.89543 22.15 6 21.2546 6 20.15V11.5625ZM8 20.15L7.99978 11.5625H9.5C10.7521 11.5625 11.5505 10.7878 11.9587 10.1809C12.353 9.59474 12.5659 8.92596 12.6907 8.41888C12.7323 8.24975 12.8193 8.11796 12.8968 8.04678C12.932 8.01445 12.9565 8.00274 12.9631 8H19.8605C19.8692 8.00419 19.8959 8.01905 19.9347 8.05757C20.0274 8.14955 20.1294 8.31934 20.1737 8.53245C20.2754 9.02139 20.4654 9.68292 20.8697 10.2674C21.318 10.9155 22.1159 11.5625 23.2681 11.5625H28V18.25H25.8279C24.2186 18.25 22.7659 19.2145 22.1414 20.6978L21.1721 23H13.7075L13.3322 22.287C12.6405 20.9728 11.2777 20.15 9.79254 20.15H8Z" fill="#56CA00"/>
</svg>
