<svg width="30" height="20" viewBox="0 0 30 20" fill="none" xmlns="http://www.w3.org/2000/svg">
<path fill-rule="evenodd" clip-rule="evenodd" d="M10.3535 11.3359C10.3352 11.4661 10.2757 11.5766 10.1967 11.6606C9.98626 11.8836 9.68671 12.009 9.41511 12.0873C9.13082 12.1692 8.80544 12.2197 8.47813 12.2522C7.83268 12.3162 7.11027 12.3162 6.55253 12.3162H6.52957C5.80566 12.3162 5.15294 11.9777 4.68871 11.5109C4.22738 11.047 3.90625 10.4098 3.90625 9.75043C3.90625 9.56393 3.96715 9.38276 4.09621 9.23537C4.21719 9.09722 4.36987 9.02065 4.50478 8.97698C4.76413 8.89304 5.07536 8.8932 5.36746 8.92078C5.96957 8.97764 6.73447 9.17803 7.45664 9.4225C8.18296 9.66837 8.90385 9.97176 9.42231 10.2533C9.67521 10.3906 9.91156 10.5395 10.0747 10.6907C10.1511 10.7616 10.256 10.8727 10.3145 11.0213C10.3464 11.1023 10.3712 11.2112 10.3535 11.3359ZM4.91829 9.90957C4.99829 9.90208 5.11479 9.90137 5.27345 9.91636C5.76249 9.96253 6.44263 10.135 7.136 10.3697C7.82523 10.603 8.49039 10.8852 8.94511 11.1321C8.96378 11.1422 8.98189 11.1522 8.99945 11.162C8.82239 11.2026 8.61299 11.2339 8.37938 11.2571C7.78341 11.3162 7.10142 11.3162 6.52982 11.3162C6.12129 11.3162 5.7121 11.1218 5.39778 10.8058C5.12891 10.5354 4.9627 10.2099 4.91829 9.90957Z" fill="#56CA00"/>
<path fill-rule="evenodd" clip-rule="evenodd" d="M19.8033 11.6606C19.7243 11.5766 19.6648 11.4661 19.6465 11.3359C19.6288 11.2112 19.6536 11.1023 19.6855 11.0213C19.744 10.8727 19.8489 10.7616 19.9253 10.6907C20.0884 10.5395 20.3248 10.3906 20.5777 10.2533C21.0961 9.97176 21.817 9.66837 22.5434 9.4225C23.2655 9.17803 24.0304 8.97764 24.6325 8.92078C24.9246 8.8932 25.2359 8.89304 25.4952 8.97698C25.6301 9.02065 25.7828 9.09722 25.9038 9.23537C26.0329 9.38276 26.0938 9.56393 26.0938 9.75043C26.0938 10.4098 25.7726 11.047 25.3113 11.5109C24.8471 11.9777 24.1943 12.3162 23.4704 12.3162H23.4476C22.8899 12.3162 22.1674 12.3162 21.5219 12.2522C21.1946 12.2197 20.8692 12.1692 20.5849 12.0873C20.3133 12.009 20.0137 11.8836 19.8033 11.6606ZM24.7265 9.91636C24.8852 9.90137 25.0017 9.90208 25.0817 9.90957C25.0373 10.2099 24.8711 10.5354 24.6022 10.8058C24.2879 11.1218 23.8787 11.3162 23.4702 11.3162C22.8986 11.3162 22.2166 11.3162 21.6206 11.2571C21.387 11.2339 21.1776 11.2026 21.0005 11.162C21.0181 11.1522 21.0362 11.1422 21.0549 11.1321C21.5096 10.8852 22.1748 10.603 22.864 10.3697C23.5574 10.135 24.2375 9.96253 24.7265 9.91636Z" fill="#56CA00"/>
<path fill-rule="evenodd" clip-rule="evenodd" d="M4.5 14.7505C4.5 13.9221 5.17157 13.2505 6 13.2505C6.82843 13.2505 7.5 13.9221 7.5 14.7505C7.5 15.5789 6.82843 16.2505 6 16.2505C5.17157 16.2505 4.5 15.5789 4.5 14.7505ZM6 14.2505C5.72386 14.2505 5.5 14.4743 5.5 14.7505C5.5 15.0266 5.72386 15.2505 6 15.2505C6.27614 15.2505 6.5 15.0266 6.5 14.7505C6.5 14.4743 6.27614 14.2505 6 14.2505Z" fill="#56CA00"/>
<path fill-rule="evenodd" clip-rule="evenodd" d="M24 13.2505C24.8284 13.2505 25.5 13.9221 25.5 14.7505C25.5 15.5789 24.8284 16.2505 24 16.2505C23.1716 16.2505 22.5 15.5789 22.5 14.7505C22.5 13.9221 23.1716 13.2505 24 13.2505ZM24.5 14.7505C24.5 14.4743 24.2761 14.2505 24 14.2505C23.7239 14.2505 23.5 14.4743 23.5 14.7505C23.5 15.0266 23.7239 15.2505 24 15.2505C24.2761 15.2505 24.5 15.0266 24.5 14.7505Z" fill="#56CA00"/>
<path fill-rule="evenodd" clip-rule="evenodd" d="M10.9748 12.2505L10.9762 12.2505H19.0238L19.0252 12.2505C19.1408 12.2502 19.2939 12.2756 19.4323 12.3809C19.5772 12.4911 19.6434 12.6409 19.6673 12.768C19.7078 12.9838 19.6402 13.1972 19.5896 13.33C19.4748 13.6313 19.2519 13.9953 19.0196 14.327C18.6467 14.8596 18.2503 15.1695 17.8104 15.3291C17.401 15.4777 16.9942 15.4776 16.6648 15.4775H13.3352C13.0058 15.4776 12.599 15.4777 12.1896 15.3291C11.7497 15.1695 11.3533 14.8596 10.9804 14.327C10.7481 13.9953 10.5252 13.6313 10.4104 13.33C10.3598 13.1972 10.2922 12.9838 10.3327 12.768C10.3566 12.6409 10.4228 12.4911 10.5677 12.3809C10.7061 12.2756 10.8592 12.2502 10.9748 12.2505ZM13.3592 14.4775H16.6408C16.9998 14.4775 17.2408 14.4721 17.4693 14.3891C17.6774 14.3136 17.9194 14.1548 18.2005 13.7534C18.3288 13.5701 18.4381 13.3982 18.5206 13.2506H11.4794C11.5619 13.3982 11.6712 13.5701 11.7995 13.7534C12.0806 14.1548 12.3226 14.3136 12.5307 14.3891C12.7592 14.4721 13.0002 14.4775 13.3592 14.4775Z" fill="#56CA00"/>
<path fill-rule="evenodd" clip-rule="evenodd" d="M15.0002 0.749515C14.4674 0.749308 13.4555 0.760545 12.4491 0.796499C11.4584 0.831892 10.4243 0.892478 9.87643 0.999383C9.32637 1.10671 8.82067 1.2752 8.30088 1.67648C7.79573 2.06647 7.30644 2.65388 6.73619 3.5445L6.55912 3.82125C5.98332 4.72156 5.6801 5.19567 5.04648 6.06967C4.9803 5.98201 4.90676 5.88984 4.82506 5.79351C4.69039 5.63473 4.51109 5.52208 4.34113 5.44017C4.1658 5.35567 3.96738 5.28826 3.76333 5.23476C3.3553 5.12777 2.88329 5.06569 2.43711 5.04816C1.99528 5.0308 1.5455 5.05577 1.18901 5.14134C1.01428 5.18328 0.824713 5.2483 0.667291 5.35749C0.504746 5.47024 0.319806 5.6752 0.320314 5.981C0.321137 6.4776 0.556769 6.91584 0.894673 7.26737C1.23208 7.61838 1.69424 7.90936 2.223 8.13124C2.55972 8.27254 2.84669 8.37637 3.09037 8.45368C2.95755 8.62322 2.83485 8.79642 2.73724 8.96912C2.61044 9.19346 2.50003 9.4615 2.50003 9.74951L2.50001 17.2737C2.49982 17.5139 2.49946 17.9704 2.66079 18.3737C2.74867 18.5934 2.89279 18.8211 3.12916 18.9918C3.36866 19.1647 3.66314 19.2505 4.00003 19.2505H6.50003C6.83691 19.2505 7.1314 19.1647 7.3709 18.9918C7.60726 18.8211 7.75138 18.5934 7.83926 18.3737C7.92159 18.1679 7.96181 17.9482 7.98143 17.7505H22.0186C22.0382 17.9482 22.0784 18.1679 22.1607 18.3737C22.2486 18.5934 22.3927 18.8211 22.6291 18.9918C22.8686 19.1647 23.1631 19.2505 23.5 19.2505H26C26.3369 19.2505 26.6313 19.1647 26.8708 18.9918C27.1072 18.8211 27.2513 18.5934 27.3392 18.3737C27.5005 17.9704 27.5002 17.5139 27.5 17.2737L27.5 9.74951C27.5 9.4615 27.3896 9.19346 27.2628 8.96912C27.1652 8.79642 27.0424 8.62323 26.9096 8.45368C27.1533 8.37638 27.4403 8.27254 27.777 8.13124C28.3058 7.90936 28.7679 7.61838 29.1053 7.26737C29.4432 6.91584 29.6789 6.4776 29.6797 5.981C29.6802 5.6752 29.4953 5.47024 29.3327 5.35749C29.1753 5.2483 28.9857 5.18328 28.811 5.14134C28.4545 5.05577 28.0047 5.0308 27.5629 5.04816C27.1167 5.06569 26.6447 5.12777 26.2367 5.23476C26.0326 5.28826 25.8342 5.35567 25.6589 5.44017C25.4889 5.52208 25.3096 5.63473 25.1749 5.79351C25.0932 5.88984 25.0197 5.98201 24.9535 6.06967C24.3199 5.19567 24.0167 4.72157 23.4409 3.82125L23.2638 3.5445C22.6936 2.65388 22.2043 2.06647 21.6991 1.67648C21.1793 1.2752 20.6736 1.10671 20.1236 0.999383C19.5757 0.892478 18.5416 0.831892 17.5509 0.796499C16.5445 0.760545 15.533 0.749308 15.0002 0.749515ZM25.5823 6.91309L25.5913 6.92418C25.7752 7.15163 25.9763 7.37837 26.1812 7.60765L26.1897 7.61714C26.4537 7.55447 26.8418 7.43921 27.3901 7.20914C27.8311 7.02408 28.1664 6.8011 28.3844 6.57437C28.5376 6.415 28.6213 6.26701 28.6576 6.1356C28.6351 6.12856 28.6085 6.12115 28.5776 6.11372C28.344 6.05765 27.9949 6.03196 27.6022 6.04739C27.2137 6.06265 26.8154 6.11683 26.4903 6.20206C26.3278 6.24467 26.194 6.29236 26.093 6.34101C25.9867 6.39225 25.9457 6.4308 25.9376 6.44033C25.7834 6.62214 25.668 6.78096 25.5823 6.91309ZM4.06242 6.44033C4.21661 6.62214 4.33199 6.78095 4.41769 6.91308L4.40873 6.92418C4.22477 7.15163 4.02371 7.37837 3.81877 7.60765L3.81029 7.61714C3.54633 7.55447 3.15823 7.43921 2.60994 7.20914C2.16893 7.02408 1.83356 6.8011 1.61561 6.57437C1.46242 6.415 1.37865 6.26701 1.34242 6.1356C1.36493 6.12856 1.39145 6.12115 1.42241 6.11372C1.65599 6.05765 2.00507 6.03196 2.39785 6.04739C2.78628 6.06265 3.18465 6.11683 3.50971 6.20206C3.67221 6.24467 3.80603 6.29236 3.90698 6.34101C4.01329 6.39225 4.05433 6.4308 4.06242 6.44033ZM14.9998 1.74951C14.4772 1.74931 13.4774 1.7604 12.4848 1.79586C11.4765 1.83189 10.5244 1.89181 10.0679 1.98087C9.61367 2.06951 9.26967 2.19189 8.91198 2.46804C8.53964 2.75549 8.12364 3.23209 7.57836 4.08372L7.40265 4.35835C6.80328 5.29549 6.48861 5.78749 5.79653 6.7386H24.2035C23.5114 5.78752 23.1968 5.29555 22.5974 4.35846L22.4216 4.08372C21.8764 3.23209 21.4604 2.75549 21.088 2.46804C20.7303 2.19189 20.3863 2.06951 19.9321 1.98087C19.4756 1.89181 18.5235 1.83189 17.5152 1.79586C16.5226 1.7604 15.5224 1.74931 14.9998 1.74951ZM5.03285 7.7386C4.87753 7.9228 4.71759 8.10263 4.56436 8.27407L4.51181 8.33284C4.32431 8.54249 4.14967 8.73776 3.99509 8.92465C3.82536 9.12987 3.69464 9.30754 3.6078 9.46117C3.51798 9.62009 3.50003 9.71039 3.50003 9.74951V17.2505C3.50003 17.5175 3.50594 17.794 3.58926 18.0023C3.62638 18.0951 3.66976 18.1487 3.71465 18.1811C3.7564 18.2112 3.83691 18.2505 4.00003 18.2505H6.50003C6.66314 18.2505 6.74366 18.2112 6.78541 18.1811C6.83029 18.1487 6.87367 18.0951 6.91079 18.0023C6.99411 17.794 7.00003 17.5175 7.00003 17.2505V16.7505H23V17.2505C23 17.5175 23.0059 17.794 23.0892 18.0023C23.1263 18.0951 23.1697 18.1487 23.2146 18.1811C23.2563 18.2112 23.3369 18.2505 23.5 18.2505H26C26.1631 18.2505 26.2436 18.2112 26.2854 18.1811C26.3302 18.1487 26.3736 18.0951 26.4107 18.0023C26.4941 17.794 26.5 17.5175 26.5 17.2505V9.74951C26.5 9.71039 26.482 9.62009 26.3922 9.46117C26.3054 9.30754 26.1746 9.12987 26.0049 8.92465C25.8504 8.73786 25.6759 8.5427 25.4885 8.33318L25.4356 8.27407C25.2824 8.10263 25.1225 7.9228 24.9672 7.7386H5.03285Z" fill="#56CA00"/>
</svg>
