<svg width="24" height="28" viewBox="0 0 24 28" fill="none" xmlns="http://www.w3.org/2000/svg">
<path d="M10.4968 12.3076C10.3299 11.9071 10.5803 11.3842 10.9641 11.323C11.2144 11.284 12.822 11.284 13.0501 11.323C13.6676 11.4231 13.84 12.2909 13.3004 12.6191C13.1335 12.7192 13.0223 12.7303 12.0321 12.7303C10.8028 12.7303 10.6581 12.6914 10.4968 12.3076Z" fill="#56CA00"/>
<path fill-rule="evenodd" clip-rule="evenodd" d="M7.67702 0.820587C8.02191 0.459011 8.5893 0.136373 9.02876 0.0529326C9.38477 -0.01382 14.6193 -0.0193827 14.9864 0.0473699C15.4704 0.136373 16.0322 0.442322 16.3827 0.815024C16.7999 1.25448 17.6899 3.00117 17.7622 3.54075C17.9347 4.78124 17.078 6.02172 15.8709 6.28317L15.5928 6.34436V8.26906L16.6385 8.29131C17.5397 8.308 17.7233 8.33025 18.0125 8.43594C18.9137 8.76414 19.6869 9.59855 19.9261 10.4886C19.9706 10.6499 21.378 20.3068 21.378 20.4403C21.378 20.4458 21.5115 20.5293 21.6784 20.6183C22.2903 20.9687 22.8855 21.7086 23.108 22.4039C23.1747 22.6209 23.2359 22.988 23.2526 23.2995C23.2971 24.145 23.1247 24.6957 22.5406 25.5913C22.4071 25.7972 22.1568 26.1866 21.9899 26.4536C21.6172 27.0432 21.0053 27.6829 20.627 27.8665L20.3489 28H12.0882C4.04457 28 3.82206 27.9944 3.53836 27.8943C2.98765 27.6885 2.77071 27.466 2.03087 26.359C0.923886 24.6957 0.762567 24.2897 0.812632 23.2717C0.82932 22.8211 0.868259 22.632 1.01289 22.2704C1.29659 21.5417 1.88623 20.863 2.50926 20.5515C2.60382 20.5015 2.68727 20.4514 2.68727 20.4458C2.68727 20.3068 4.09463 10.6555 4.13913 10.4886C4.32827 9.79324 4.96798 8.99221 5.62438 8.65289C6.2474 8.32469 6.4866 8.28018 7.53795 8.28018H8.47249V6.34436L8.18323 6.28317C7.24313 6.07735 6.46435 5.22069 6.30859 4.2194C6.21403 3.61307 6.2919 3.31824 6.8593 2.17233C7.27094 1.33792 7.42113 1.0876 7.67702 0.820587ZM15.9877 2.9066C15.5316 1.98319 15.3313 1.6995 15.042 1.5493C14.8251 1.44361 14.725 1.43805 12.0493 1.43805C9.47934 1.43805 9.26239 1.44917 9.05657 1.54374C8.74506 1.68281 8.60599 1.86638 8.18323 2.69522C7.77715 3.48513 7.66033 3.84114 7.71596 4.1304C7.76602 4.39741 8.13316 4.79793 8.40573 4.8758C8.56149 4.92587 9.57947 4.94256 12.066 4.94256C15.2924 4.94256 15.5204 4.93143 15.7318 4.83687C15.9988 4.71449 16.1713 4.53648 16.2881 4.26391C16.4327 3.90233 16.3994 3.72989 15.9877 2.9066ZM14.1743 8.25237L14.191 7.31784L14.2021 6.38886H9.86316L9.87429 7.31784L9.89098 8.25237H14.1743ZM17.79 9.91562C17.7066 9.85999 17.5119 9.78768 17.3561 9.74318C17.1281 9.68755 16.0545 9.67086 12.0048 9.67642C6.73136 9.67642 6.63123 9.68199 6.28078 9.91562L6.13058 10.0102L6.45878 10.2549C6.98724 10.6499 7.82165 11.5622 8.24998 12.213C9.20676 13.6482 9.86873 15.4672 10.1691 17.4698C10.2859 18.2152 10.3582 19.7727 10.3638 21.4193V22.7432H13.7014V21.4193C13.707 19.7727 13.7793 18.2152 13.8961 17.4698C14.1965 15.4561 14.8585 13.6538 15.8153 12.213C16.2492 11.5622 17.1003 10.6276 17.612 10.2494L17.9347 10.0102L17.79 9.91562ZM7.69927 14.1433C7.232 13.1698 6.8148 12.569 6.13058 11.8793C5.80238 11.5511 5.51312 11.284 5.48531 11.284C5.41856 11.284 4.16138 20.0398 4.21701 20.1232C4.2337 20.1566 4.31158 20.1844 4.38389 20.1844C4.61753 20.1844 5.10705 20.4013 5.34624 20.6072C5.47975 20.7184 5.82464 21.169 6.1139 21.6084C6.40872 22.0535 6.73692 22.4818 6.84817 22.5652C7.04247 22.7151 7.05949 22.7154 7.98286 22.732L8.92863 22.7488L8.90082 20.5905C8.88413 19.4056 8.84519 18.2319 8.81181 17.9871C8.60043 16.5186 8.23329 15.2447 7.69927 14.1433ZM19.8482 20.1232C19.8705 20.0954 19.6035 18.0928 19.2586 15.673C18.9137 13.2588 18.6133 11.284 18.5855 11.284C18.4631 11.284 17.3116 12.519 17.0168 12.9751C16.3604 13.9764 15.7596 15.4338 15.4926 16.6799C15.2201 17.9371 15.1922 18.2931 15.1644 20.5571L15.1366 22.7432H16.9667L17.1893 22.5819C17.3283 22.4818 17.6009 22.1313 17.9458 21.614C18.2406 21.169 18.5855 20.7184 18.719 20.6072C18.9582 20.4013 19.4477 20.1844 19.6814 20.1844C19.7537 20.1844 19.8315 20.1566 19.8482 20.1232ZM5.0236 22.5207C4.67872 22.0034 4.42839 21.6863 4.33383 21.6418C3.71637 21.3637 2.61495 21.9923 2.32569 22.7989C2.16437 23.2383 2.18106 23.8002 2.36463 24.1951C2.58157 24.6624 3.72749 26.3757 3.89994 26.4814C4.039 26.5759 4.53409 26.5815 12.0159 26.5815C17.9235 26.5815 20.0207 26.5648 20.1208 26.5148C20.2766 26.448 21.5226 24.6067 21.7062 24.1784C21.8619 23.828 21.8953 23.5109 21.823 23.1493C21.645 22.2815 20.9775 21.6529 20.1764 21.5862C19.9817 21.5751 19.7926 21.5862 19.7203 21.6251C19.6591 21.6585 19.3865 22.0145 19.1251 22.415C18.541 23.2939 18.1015 23.7501 17.6231 23.9726L17.2783 24.1395L12.0716 24.1339C7.24224 24.1339 6.78532 24.1382 6.40963 23.9656C6.35777 23.9418 6.30745 23.9146 6.2474 23.8836C5.90251 23.7056 5.56319 23.3218 5.0236 22.5207Z" fill="#56CA00"/>
</svg>
