<svg width="28" height="26" viewBox="0 0 28 26" fill="none" xmlns="http://www.w3.org/2000/svg">
<path d="M4.31778 6.90958C3.13966 8.51562 2.35152 10.4256 2.09284 12.5H4C4.55228 12.5 5 12.9477 5 13.5C5 14.0523 4.55228 14.5 4 14.5H2.01022C2.10935 16.9214 2.9253 19.156 4.252 21H4.58579L6.29289 19.2929C6.68342 18.9024 7.31658 18.9024 7.70711 19.2929C8.09763 19.6834 8.09763 20.3166 7.70711 20.7071L5.41421 23H3.26477L2.96449 22.6159C1.10736 20.2404 0 17.2481 0 14C0 6.26801 6.26801 0 14 0C21.732 0 28 6.26801 28 14C28 17.2481 26.8926 20.2404 25.0355 22.6159L24.7352 23H22.5858L20.2929 20.7071C19.9024 20.3166 19.9024 19.6834 20.2929 19.2929C20.6834 18.9024 21.3166 18.9024 21.7071 19.2929L23.4142 21H23.748C25.0747 19.156 25.8906 16.9214 25.9898 14.5H24C23.4477 14.5 23 14.0523 23 13.5C23 12.9477 23.4477 12.5 24 12.5H25.9072C25.6485 10.4256 24.8603 8.51562 23.6822 6.90958L22.2927 8.29906C21.9022 8.68958 21.2691 8.68958 20.8785 8.29906C20.488 7.90853 20.488 7.27537 20.8785 6.88484L22.2927 5.47063C22.3175 5.44582 22.3433 5.4226 22.37 5.40094C20.4317 3.51404 17.8579 2.27684 15 2.04107V4C15 4.55228 14.5523 5 14 5C13.4477 5 13 4.55228 13 4V2.04107C10.1422 2.27684 7.56826 3.51404 5.63003 5.40094C5.65667 5.42259 5.68245 5.44582 5.70726 5.47063L7.12147 6.88484C7.512 7.27537 7.512 7.90853 7.12147 8.29906C6.73095 8.68958 6.09778 8.68958 5.70726 8.29906L4.31778 6.90958Z" fill="#56CA00"/>
<path d="M9 23C8.72386 23 8.5 23.2239 8.5 23.5V25.5C8.5 25.7761 8.72386 26 9 26H10C10.2761 26 10.5 25.7761 10.5 25.5V23.5C10.5 23.2239 10.2761 23 10 23H9Z" fill="#56CA00"/>
<path d="M11.5 23.5C11.5 23.2239 11.7239 23 12 23H13C13.2761 23 13.5 23.2239 13.5 23.5V25.5C13.5 25.7761 13.2761 26 13 26H12C11.7239 26 11.5 25.7761 11.5 25.5V23.5Z" fill="#56CA00"/>
<path d="M15 23C14.7239 23 14.5 23.2239 14.5 23.5V25.5C14.5 25.7761 14.7239 26 15 26H16C16.2761 26 16.5 25.7761 16.5 25.5V23.5C16.5 23.2239 16.2761 23 16 23H15Z" fill="#56CA00"/>
<path d="M17.5 23.5C17.5 23.2239 17.7239 23 18 23H19C19.2761 23 19.5 23.2239 19.5 23.5V25.5C19.5 25.7761 19.2761 26 19 26H18C17.7239 26 17.5 25.7761 17.5 25.5V23.5Z" fill="#56CA00"/>
<path d="M15.6572 14.5C15.6572 15.415 14.9155 16.1567 14.0005 16.1567C13.0855 16.1567 12.3438 15.415 12.3438 14.5C12.3438 14.3413 12.3661 14.1878 12.4077 14.0425L9.69929 10.2895L13.3958 12.9571C13.5831 12.8836 13.7871 12.8433 14.0005 12.8433C14.9155 12.8433 15.6572 13.585 15.6572 14.5Z" fill="#56CA00"/>
</svg>
