<svg width="34" height="30" viewBox="0 0 34 30" fill="none" xmlns="http://www.w3.org/2000/svg">
<path d="M28.6667 8.33333H5.33333C2.56666 8.33333 0.333328 10.5667 0.333328 13.3333V23.3333H7V30H27V23.3333H33.6667V13.3333C33.6667 10.5667 31.4333 8.33333 28.6667 8.33333ZM23.6667 26.6667H10.3333V18.3333H23.6667V26.6667ZM28.6667 15C27.75 15 27 14.25 27 13.3333C27 12.4167 27.75 11.6667 28.6667 11.6667C29.5833 11.6667 30.3333 12.4167 30.3333 13.3333C30.3333 14.25 29.5833 15 28.6667 15ZM27 0H7V6.66667H27V0Z" fill="#56CA00"/>
</svg>
