<svg width="18" height="18" viewBox="0 0 18 18" fill="none" xmlns="http://www.w3.org/2000/svg">
<path d="M14.19 4.5075C14.04 4.065 13.62 3.75 13.125 3.75H4.875C4.38 3.75 3.9675 4.065 3.81 4.5075L2.25 9V15C2.25 15.4125 2.5875 15.75 3 15.75H3.75C4.1625 15.75 4.5 15.4125 4.5 15V14.25H13.5V15C13.5 15.4125 13.8375 15.75 14.25 15.75H15C15.4125 15.75 15.75 15.4125 15.75 15V9L14.19 4.5075ZM5.625 12C5.0025 12 4.5 11.4975 4.5 10.875C4.5 10.2525 5.0025 9.75 5.625 9.75C6.2475 9.75 6.75 10.2525 6.75 10.875C6.75 11.4975 6.2475 12 5.625 12ZM12.375 12C11.7525 12 11.25 11.4975 11.25 10.875C11.25 10.2525 11.7525 9.75 12.375 9.75C12.9975 9.75 13.5 10.2525 13.5 10.875C13.5 11.4975 12.9975 12 12.375 12ZM4.3575 7.5L5.1375 5.25H12.855L13.635 7.5H4.3575Z" fill="#56CA00"/>
</svg>
