<svg width="26" height="28" viewBox="0 0 26 28" fill="none" xmlns="http://www.w3.org/2000/svg">
<path d="M6.73394 3.01016C3.32203 4.41289 0.585114 5.5625 0.516559 5.63105C0.22652 5.9 0.242341 5.38848 0.242341 14C0.242341 22.6115 0.22652 22.1 0.516559 22.3689C0.685309 22.5324 12.7878 27.5 13.0093 27.5C13.1834 27.5 25.1646 22.6115 25.3966 22.4428C25.4705 22.39 25.5812 22.2687 25.6498 22.1738L25.7658 21.9998V14V6.00019L25.6498 5.82617C25.5812 5.73125 25.4705 5.60996 25.3966 5.55722C25.1435 5.37793 13.1834 0.5 12.9988 0.5C12.888 0.505272 10.5097 1.45449 6.73394 3.01016ZM14.4595 2.85195C15.2136 3.15781 15.8412 3.42676 15.8623 3.44785C15.9044 3.48476 6.48082 7.59805 6.39117 7.57695C6.27515 7.54531 3.3273 6.33242 3.28511 6.30078C3.23765 6.26387 12.8248 2.30351 12.983 2.29824C13.0462 2.29297 13.7107 2.54609 14.4595 2.85195ZM20.4818 5.33047C21.7369 5.84199 22.7441 6.27969 22.723 6.30078C22.7019 6.32187 20.5029 7.2289 17.8451 8.32051L13.0093 10.3033L10.8894 9.4332C9.71871 8.95332 8.73257 8.54726 8.70093 8.52617C8.66402 8.50508 9.54468 8.09375 10.7259 7.57695C11.8755 7.07598 14.006 6.14785 15.4562 5.50977C16.9064 4.87695 18.1193 4.36543 18.1457 4.3707C18.1773 4.38125 19.2267 4.81367 20.4818 5.33047ZM3.85992 8.37324L5.70035 9.12734L5.72672 11.474C5.72672 12.3692 5.72672 12.4745 5.72672 12.8051C5.72672 13.0544 5.72672 13.0725 5.72672 13.4001C5.72672 14.1418 6.99761 14.4746 7.2982 13.9314C7.3773 13.7838 7.39312 13.5307 7.41422 11.801L7.44058 9.84453L9.78726 10.8096L12.1339 11.7746L12.1498 18.5826L12.1603 25.3906L11.9283 25.2957C11.8017 25.2482 9.5025 24.3043 6.81832 23.2021L1.92984 21.1982V14.4061C1.92984 10.5828 1.95093 7.61914 1.9773 7.61914C2.00367 7.61914 2.84742 7.95664 3.85992 8.37324ZM24.0783 14.4061V21.1982L22.8232 21.7098C21.9056 22.0842 14.4543 25.148 13.9111 25.3748C13.8584 25.3959 13.8478 24.0354 13.8584 18.5879L13.8742 11.7746L18.9103 9.70215C21.6789 8.56309 23.9781 7.62441 24.015 7.62441C24.0625 7.61914 24.0783 9.01133 24.0783 14.4061Z" fill="#56CA00"/>
</svg>
