<svg width="28" height="26" viewBox="0 0 28 26" fill="none" xmlns="http://www.w3.org/2000/svg">
<path fill-rule="evenodd" clip-rule="evenodd" d="M7.5 3.5C7.5 5.08551 6.44574 6.42479 5 6.85506V12H13V6.85506C11.5543 6.42479 10.5 5.08551 10.5 3.5C10.5 1.567 12.067 0 14 0C15.933 0 17.5 1.567 17.5 3.5C17.5 5.08551 16.4457 6.42479 15 6.85506V12H23V7C23 6.9518 23.0034 6.9044 23.01 6.85802C21.5591 6.43096 20.5 5.08917 20.5 3.5C20.5 1.567 22.067 0 24 0C25.933 0 27.5 1.567 27.5 3.5C27.5 5.08917 26.4409 6.43096 24.99 6.85802C24.9966 6.9044 25 6.9518 25 7V13C25 13.5523 24.5523 14 24 14H15V19.1449C16.4457 19.5752 17.5 20.9145 17.5 22.5C17.5 24.433 15.933 26 14 26C12.067 26 10.5 24.433 10.5 22.5C10.5 20.9145 11.5543 19.5752 13 19.1449V14H5V19.1449C6.44574 19.5752 7.5 20.9145 7.5 22.5C7.5 24.433 5.933 26 4 26C2.067 26 0.5 24.433 0.5 22.5C0.5 20.9145 1.55426 19.5752 3 19.1449V6.85506C1.55426 6.42479 0.5 5.08551 0.5 3.5C0.5 1.567 2.067 0 4 0C5.933 0 7.5 1.567 7.5 3.5ZM5.5 3.5C5.5 4.32843 4.82843 5 4 5C3.17157 5 2.5 4.32843 2.5 3.5C2.5 2.67157 3.17157 2 4 2C4.82843 2 5.5 2.67157 5.5 3.5ZM5.5 22.5C5.5 23.3284 4.82843 24 4 24C3.17157 24 2.5 23.3284 2.5 22.5C2.5 21.6716 3.17157 21 4 21C4.82843 21 5.5 21.6716 5.5 22.5ZM14 24C14.8284 24 15.5 23.3284 15.5 22.5C15.5 21.6716 14.8284 21 14 21C13.1716 21 12.5 21.6716 12.5 22.5C12.5 23.3284 13.1716 24 14 24ZM14 5C14.8284 5 15.5 4.32843 15.5 3.5C15.5 2.67157 14.8284 2 14 2C13.1716 2 12.5 2.67157 12.5 3.5C12.5 4.32843 13.1716 5 14 5ZM25.5 3.5C25.5 4.32843 24.8284 5 24 5C23.1716 5 22.5 4.32843 22.5 3.5C22.5 2.67157 23.1716 2 24 2C24.8284 2 25.5 2.67157 25.5 3.5Z" fill="#56CA00"/>
<path fill-rule="evenodd" clip-rule="evenodd" d="M27.5 22.5C27.5 24.433 25.933 26 24 26C22.067 26 20.5 24.433 20.5 22.5C20.5 20.567 22.067 19 24 19C25.933 19 27.5 20.567 27.5 22.5ZM25.5 22.5C25.5 23.3284 24.8284 24 24 24C23.1716 24 22.5 23.3284 22.5 22.5C22.5 21.6716 23.1716 21 24 21C24.8284 21 25.5 21.6716 25.5 22.5Z" fill="#56CA00"/>
</svg>
