<svg width="24" height="26" viewBox="0 0 24 26" fill="none" xmlns="http://www.w3.org/2000/svg">
<path fill-rule="evenodd" clip-rule="evenodd" d="M20.5953 1.31022C21.0251 1.31123 21.1712 1.35194 21.2851 1.47859C21.4397 1.65045 21.627 2.08902 21.6988 3.23316L21.6991 3.23785C21.8261 4.99587 22.0579 8.34838 22.152 10.1735H5.94683C6.08263 9.87563 6.20064 9.53007 6.3045 9.18095C6.44251 8.71693 6.56429 8.21567 6.67182 7.75759C6.69579 7.65549 6.71894 7.55602 6.74137 7.45967C6.82124 7.11654 6.89191 6.81293 6.9574 6.57068C6.97248 6.5149 7.04532 6.36376 7.227 6.12475C7.39838 5.8993 7.63862 5.63183 7.93845 5.34801C8.53866 4.77986 9.35445 4.16792 10.2863 3.70753C11.9615 2.87986 14.851 1.96913 16.4096 1.75031C17.212 1.63765 17.8895 1.55818 18.3659 1.50692C18.6041 1.4813 18.7918 1.46274 18.9196 1.45061C18.9836 1.44456 19.0325 1.4401 19.0652 1.43719L19.102 1.43395L19.1131 1.433L20.5953 1.31022ZM19.0301 0.436308L20.5541 0.310072L20.5746 0.310062C20.9946 0.309857 21.585 0.316742 22.0283 0.809594C22.4324 1.25888 22.6239 2.01561 22.6965 3.16802C22.8366 5.10732 23.1059 9.01116 23.1758 10.6523C23.1843 10.8525 23.19 11.0227 23.1921 11.1532C23.215 12.5959 23.104 17.0404 22.9912 18.5986C22.9357 19.3646 22.8843 20.3269 22.9006 21.1943C22.9088 21.6284 22.9338 22.0289 22.9813 22.364C23.0305 22.7103 23.0978 22.9419 23.1659 23.0681C23.2766 23.2732 23.4093 23.5257 23.4988 23.783C23.5861 24.0337 23.6574 24.3569 23.5724 24.6828C23.4785 25.0428 23.2216 25.3084 22.8515 25.4698C22.5025 25.6219 22.039 25.6901 21.4556 25.6901H5.0859C4.71354 25.6901 4.27474 25.6712 3.84279 25.2712C3.46722 24.9233 3.13247 24.3177 2.73176 23.3375C2.45546 22.6722 2.02602 21.5943 1.63279 20.5162C1.24337 19.4486 0.875663 18.3438 0.738853 17.6434L0.736184 17.6297L0.736155 17.6295C0.578471 16.8223 0.387702 15.8457 0.390659 14.9521C0.393602 14.0633 0.588054 13.1158 1.34849 12.5201C1.79879 12.1673 2.04794 11.9397 2.22491 11.7521C2.36695 11.6017 2.46533 11.4749 2.59549 11.3073L2.59559 11.3072C2.61487 11.2823 2.63484 11.2566 2.65576 11.2298C2.67268 11.2081 2.69022 11.1857 2.70851 11.1624C2.78491 11.0651 2.85275 10.9793 2.92206 10.8916L2.92334 10.89L2.94242 10.8658L2.95493 10.85L2.95708 10.8473C2.99228 10.8028 3.02828 10.7572 3.06634 10.709C3.10291 10.6627 3.14139 10.6139 3.1829 10.5611C3.30935 10.4003 3.47491 10.3131 3.61788 10.2638C3.76004 10.2147 3.90901 10.1929 4.04175 10.1819C4.22875 10.1664 4.44907 10.1693 4.63985 10.1718L4.64218 10.1718C4.69088 10.1725 4.73764 10.173 4.78138 10.1733C4.81704 10.141 4.87281 10.0724 4.94175 9.94887C5.07969 9.70173 5.21534 9.33573 5.34622 8.89571C5.47527 8.46181 5.59145 7.98502 5.6985 7.52895C5.72092 7.43344 5.74305 7.33836 5.76486 7.24463L5.76489 7.24449C5.84547 6.8982 5.92171 6.5706 5.99227 6.30958C6.05973 6.06009 6.23127 5.78233 6.43115 5.51938C6.64134 5.24287 6.91983 4.93531 7.25125 4.62157C7.91357 3.9946 8.81025 3.32134 9.84354 2.8108C11.6033 1.94135 14.5949 0.995151 16.2707 0.759876C17.0855 0.645482 17.7738 0.564724 18.259 0.512516C18.5017 0.486409 18.6936 0.467425 18.8253 0.454937C18.8911 0.448692 18.9419 0.444071 18.9764 0.440992L19.0159 0.437523L19.0301 0.436308ZM4.58053 11.1715L4.5784 11.1715L4.57689 11.1715C4.40561 11.1693 4.26061 11.1674 4.12419 11.1786C4.0334 11.1862 3.97723 11.198 3.94577 11.2086C3.8664 11.3095 3.80274 11.39 3.74264 11.466L3.72498 11.4883C3.65207 11.5805 3.58271 11.6682 3.49455 11.7804C3.46398 11.8193 3.43403 11.8579 3.4042 11.8964L3.39732 11.9053L3.39609 11.9069C3.26215 12.0795 3.12948 12.2506 2.95191 12.4387C2.72807 12.6759 2.43688 12.9377 1.96493 13.3075C1.57254 13.6149 1.39307 14.1636 1.39045 14.9554C1.38786 15.7375 1.55768 16.6201 1.72009 17.4516C1.76788 17.6962 1.85087 18.0082 1.95828 18.3632H4.58508C4.86116 18.3632 5.08497 18.5871 5.08497 18.8633C5.08497 19.1394 4.86116 19.3634 4.58508 19.3634H2.28432C2.37498 19.6266 2.47182 19.8988 2.57202 20.1735C2.95966 21.2362 3.38391 22.3009 3.65559 22.9551L3.65667 22.9577C4.05754 23.9386 4.32437 24.3542 4.52202 24.5372C4.66346 24.6683 4.76972 24.6899 5.0859 24.6899H21.4556C21.9807 24.6899 22.2857 24.6254 22.4521 24.5529C22.5909 24.4923 22.6022 24.443 22.6047 24.4316L22.605 24.4302C22.6161 24.388 22.6172 24.2915 22.5546 24.1118C22.4944 23.9387 22.3977 23.7498 22.2862 23.5433C22.1322 23.258 22.0453 22.8838 21.9915 22.5045C21.9361 22.1141 21.9096 21.6694 21.901 21.2132C21.8895 20.6041 21.9097 19.9571 21.9412 19.3634H9.381C9.10491 19.3634 8.88107 19.1394 8.88107 18.8633C8.88107 18.5871 9.10491 18.3632 9.381 18.3632H22.0051C22.1117 16.7089 22.2139 12.5467 22.1925 11.1736H4.82667C4.73857 11.1736 4.65722 11.1726 4.58106 11.1715H4.58053ZM20.088 2.87445L18.1572 3.03573C12.8106 3.58633 9.72783 5.67979 8.7464 6.81739C8.46722 7.14097 8.3032 7.53511 8.27689 7.65026L8.27263 7.66904L8.2669 7.68744C8.24934 7.74366 8.24786 7.77542 8.24856 7.78918C8.24981 7.7902 8.25133 7.79138 8.25315 7.79272C8.2541 7.79341 8.25513 7.79415 8.25625 7.79494C8.25739 7.79573 8.25862 7.79657 8.25994 7.79745C8.28827 7.81613 8.34028 7.83899 8.41884 7.85623C8.49508 7.87296 8.5779 7.88032 8.65251 7.88032H20.3134C20.4111 7.88032 20.4781 7.87355 20.522 7.86603C20.5217 7.85051 20.5211 7.83276 20.5203 7.81155C20.5202 7.80722 20.52 7.80267 20.5198 7.79793C20.5185 7.76606 20.517 7.72552 20.5166 7.68425L20.3237 4.6506C20.2986 4.34075 20.2823 4.06325 20.2685 3.82591C20.2634 3.73876 20.2586 3.65703 20.2538 3.5811C20.2351 3.28429 20.2168 3.09008 20.1869 2.95585C20.1784 2.91783 20.1704 2.89144 20.1641 2.87382C20.1468 2.87273 20.122 2.87241 20.088 2.87445ZM21.2672 3.77757C21.2809 4.01325 21.2963 4.27455 21.3206 4.57396L21.3213 4.58274L21.5163 7.65125V7.66714C21.5163 7.67977 21.5166 7.69259 21.517 7.7068C21.5174 7.72065 21.518 7.73582 21.5186 7.75344L21.5189 7.75975L21.5194 7.7736C21.521 7.81559 21.523 7.8712 21.5217 7.92909C21.5192 8.04092 21.5045 8.21257 21.4132 8.38338C21.2011 8.78019 20.7626 8.88046 20.3134 8.88046H8.65251C8.40499 8.88046 8.01986 8.83687 7.70992 8.63262C7.54365 8.52306 7.38553 8.35744 7.30382 8.12121C7.22446 7.89176 7.23518 7.64782 7.30695 7.40758C7.37857 7.11767 7.61994 6.59233 7.98949 6.16396C9.17457 4.79024 12.5185 2.60991 18.0596 2.04035L18.0692 2.03937L20.0198 1.87652C20.2661 1.86074 20.5487 1.88902 20.786 2.07472C21.0193 2.25726 21.1138 2.51852 21.1628 2.73843C21.2121 2.96027 21.2335 3.23011 21.2516 3.51815C21.2569 3.60135 21.2619 3.68759 21.2672 3.77757ZM14.3326 12.5002C13.5607 12.5002 12.9349 13.1262 12.9349 13.8984C12.9349 14.6706 13.5607 15.2965 14.3326 15.2965H19.7309C20.5028 15.2965 21.1285 14.6706 21.1285 13.8984C21.1285 13.1262 20.5028 12.5002 19.7309 12.5002H14.3326ZM13.9348 13.8984C13.9348 13.6786 14.1128 13.5004 14.3326 13.5004H19.7309C19.9506 13.5004 20.1288 13.6786 20.1288 13.8984C20.1288 14.1182 19.9506 14.2964 19.7309 14.2964H14.3326C14.1128 14.2964 13.9348 14.1182 13.9348 13.8984ZM5.68718 18.8633C5.68718 18.5871 5.91099 18.3632 6.18708 18.3632C6.46317 18.3632 6.68698 18.5871 6.68698 18.8633C6.68698 19.1394 6.46317 19.3634 6.18708 19.3634C5.91099 19.3634 5.68718 19.1394 5.68718 18.8633ZM7.78832 18.3632C7.51223 18.3632 7.28842 18.5871 7.28842 18.8633C7.28842 19.1394 7.51223 19.3634 7.78832 19.3634C8.0644 19.3634 8.28819 19.1394 8.28819 18.8633C8.28819 18.5871 8.0644 18.3632 7.78832 18.3632Z" fill="#56CA00"/>
</svg>
