<svg width="26" height="26" viewBox="0 0 26 26" fill="none" xmlns="http://www.w3.org/2000/svg">
<path d="M0 8.125H8.125V0H0V8.125ZM6.5 6.5H1.625V1.625H6.5V6.5Z" fill="#56CA00"/>
<path d="M3.25001 4.875H4.87501V3.25H3.25001V4.875Z" fill="#56CA00"/>
<path d="M17.875 8.125H26V0H17.875V8.125ZM24.375 6.5H19.5V1.625H24.375V6.5Z" fill="#56CA00"/>
<path d="M21.125 4.875H22.75V3.25H21.125V4.875Z" fill="#56CA00"/>
<path d="M9.75 4.875H13V6.5H14.625V4.875H16.25V3.25H11.375V1.625H9.75V4.875Z" fill="#56CA00"/>
<path d="M9.75 8.125H11.375V6.5H9.75V8.125Z" fill="#56CA00"/>
<path d="M14.625 9.75H9.75V11.375H16.25V8.125H14.625V9.75Z" fill="#56CA00"/>
<path d="M3.25001 11.375H4.87501V9.75H3.25001V11.375Z" fill="#56CA00"/>
<path d="M6.50001 13H4.87501V16.25H6.50001V14.625H9.75V16.25H13V14.625H11.375V13H8.12501V9.75H6.50001V13Z" fill="#56CA00"/>
<path d="M19.5 11.375H17.875V13H24.375V9.75H22.75V11.375H21.125V9.75H19.5V11.375Z" fill="#56CA00"/>
<path d="M14.625 16.25H16.25V13H14.625V16.25Z" fill="#56CA00"/>
<path d="M17.875 16.25H19.5V19.5H21.125V14.625H17.875V16.25Z" fill="#56CA00"/>
<path d="M22.75 16.25H25.1333V14.625H22.75V16.25Z" fill="#56CA00"/>
<path d="M0 26H8.125V17.875H0V26ZM6.5 24.375H1.625V19.5H6.5V24.375Z" fill="#56CA00"/>
<path d="M3.25001 22.75H4.87501V21.125H3.25001V22.75Z" fill="#56CA00"/>
<path d="M9.75 19.5H13V24.375H9.75V26H14.625V24.375H17.875V22.75H14.625V17.875H9.75V19.5Z" fill="#56CA00"/>
<path d="M16.25 21.125H17.875V17.875H16.25V21.125Z" fill="#56CA00"/>
<path d="M9.75 22.75H11.375V21.125H9.75V22.75Z" fill="#56CA00"/>
<path d="M19.5 26H21.125V22.75H23.4V21.125H19.5V26Z" fill="#56CA00"/>
</svg>
