<svg width="20" height="20" viewBox="0 0 20 20" fill="none" xmlns="http://www.w3.org/2000/svg">
<path opacity="0.5" d="M15.7667 5.00817C15.6 4.5165 15.1333 4.1665 14.5833 4.1665H5.41667C4.86667 4.1665 4.40833 4.5165 4.23333 5.00817L2.5 9.99984V16.6665C2.5 17.1248 2.875 17.4998 3.33333 17.4998H4.16667C4.625 17.4998 5 17.1248 5 16.6665V15.8332H15V16.6665C15 17.1248 15.375 17.4998 15.8333 17.4998H16.6667C17.125 17.4998 17.5 17.1248 17.5 16.6665V9.99984L15.7667 5.00817ZM5.41667 13.3332C4.725 13.3332 4.16667 12.7748 4.16667 12.0832C4.16667 11.3915 4.725 10.8332 5.41667 10.8332C6.10833 10.8332 6.66667 11.3915 6.66667 12.0832C6.66667 12.7748 6.10833 13.3332 5.41667 13.3332ZM14.5833 13.3332C13.8917 13.3332 13.3333 12.7748 13.3333 12.0832C13.3333 11.3915 13.8917 10.8332 14.5833 10.8332C15.275 10.8332 15.8333 11.3915 15.8333 12.0832C15.8333 12.7748 15.275 13.3332 14.5833 13.3332ZM4.16667 9.1665L5.41667 5.4165H14.5833L15.8333 9.1665H4.16667Z" fill="#3A3541" fill-opacity="0.87"/>
</svg>
