<svg width="30" height="30" viewBox="0 0 30 30" fill="none" xmlns="http://www.w3.org/2000/svg">
<path fill-rule="evenodd" clip-rule="evenodd" d="M20.8375 16.4124C22.55 17.5749 23.75 19.1499 23.75 21.2499V24.9999H28.75V21.2499C28.75 18.5249 24.2875 16.9124 20.8375 16.4124Z" fill="#56CA00"/>
<path d="M11.25 15C14.0114 15 16.25 12.7614 16.25 10C16.25 7.23858 14.0114 5 11.25 5C8.48858 5 6.25 7.23858 6.25 10C6.25 12.7614 8.48858 15 11.25 15Z" fill="#56CA00"/>
<path fill-rule="evenodd" clip-rule="evenodd" d="M18.75 15C21.5125 15 23.75 12.7625 23.75 10C23.75 7.2375 21.5125 5 18.75 5C18.1625 5 17.6125 5.125 17.0875 5.3C18.125 6.5875 18.75 8.225 18.75 10C18.75 11.775 18.125 13.4125 17.0875 14.7C17.6125 14.875 18.1625 15 18.75 15Z" fill="#56CA00"/>
<path fill-rule="evenodd" clip-rule="evenodd" d="M11.25 16.25C7.9125 16.25 1.25 17.925 1.25 21.25V25H21.25V21.25C21.25 17.925 14.5875 16.25 11.25 16.25Z" fill="#56CA00"/>
</svg>
