<svg width="30" height="30" viewBox="0 0 30 30" fill="none" xmlns="http://www.w3.org/2000/svg">
<path d="M25.5821 14.3389L15.6503 4.40266C15.2341 3.98631 14.6605 3.75 14.0643 3.75H5.99958C4.76231 3.75 3.75 4.76275 3.75 6.00056V14.0688C3.75 14.6652 3.98621 15.2391 4.41363 15.6555L14.3455 25.5917C15.2228 26.4694 16.6513 26.4694 17.5287 25.5917L25.5934 17.5234C26.4707 16.6457 26.4707 15.2279 25.5821 14.3389ZM8.81155 10.5017C7.87797 10.5017 7.12437 9.74775 7.12437 8.81377C7.12437 7.87978 7.87797 7.12584 8.81155 7.12584C9.74512 7.12584 10.4987 7.87978 10.4987 8.81377C10.4987 9.74775 9.74512 10.5017 8.81155 10.5017Z" fill="#56CA00"/>
</svg>
