<svg width="20" height="20" viewBox="0 0 20 20" fill="none" xmlns="http://www.w3.org/2000/svg">
<path opacity="0.5" d="M16.1915 10.8165C16.2249 10.5498 16.2499 10.2832 16.2499 9.99984C16.2499 9.7165 16.2249 9.44984 16.1915 9.18317L17.9499 7.80817C18.1082 7.68317 18.1499 7.45817 18.0499 7.27484L16.3832 4.3915C16.3082 4.25817 16.1665 4.18317 16.0165 4.18317C15.9665 4.18317 15.9165 4.1915 15.8749 4.20817L13.7999 5.0415C13.3665 4.70817 12.8999 4.43317 12.3915 4.22484L12.0749 2.0165C12.0499 1.8165 11.8749 1.6665 11.6665 1.6665H8.3332C8.12487 1.6665 7.94987 1.8165 7.92487 2.0165L7.6082 4.22484C7.09987 4.43317 6.6332 4.7165 6.19987 5.0415L4.12487 4.20817C4.07487 4.1915 4.02487 4.18317 3.97487 4.18317C3.8332 4.18317 3.69153 4.25817 3.61653 4.3915L1.94987 7.27484C1.84153 7.45817 1.89153 7.68317 2.04987 7.80817L3.8082 9.18317C3.77487 9.44984 3.74987 9.72484 3.74987 9.99984C3.74987 10.2748 3.77487 10.5498 3.8082 10.8165L2.04987 12.1915C1.89153 12.3165 1.84987 12.5415 1.94987 12.7248L3.61653 15.6082C3.69153 15.7415 3.8332 15.8165 3.9832 15.8165C4.0332 15.8165 4.0832 15.8082 4.12487 15.7915L6.19987 14.9582C6.6332 15.2915 7.09987 15.5665 7.6082 15.7748L7.92487 17.9832C7.94987 18.1832 8.12487 18.3332 8.3332 18.3332H11.6665C11.8749 18.3332 12.0499 18.1832 12.0749 17.9832L12.3915 15.7748C12.8999 15.5665 13.3665 15.2832 13.7999 14.9582L15.8749 15.7915C15.9249 15.8082 15.9749 15.8165 16.0249 15.8165C16.1665 15.8165 16.3082 15.7415 16.3832 15.6082L18.0499 12.7248C18.1499 12.5415 18.1082 12.3165 17.9499 12.1915L16.1915 10.8165V10.8165ZM14.5415 9.3915C14.5749 9.64984 14.5832 9.82484 14.5832 9.99984C14.5832 10.1748 14.5665 10.3582 14.5415 10.6082L14.4249 11.5498L15.1665 12.1332L16.0665 12.8332L15.4832 13.8415L14.4249 13.4165L13.5582 13.0665L12.8082 13.6332C12.4499 13.8998 12.1082 14.0998 11.7665 14.2415L10.8832 14.5998L10.7499 15.5415L10.5832 16.6665H9.41653L9.2582 15.5415L9.12487 14.5998L8.24153 14.2415C7.8832 14.0915 7.54987 13.8998 7.21653 13.6498L6.4582 13.0665L5.57487 13.4248L4.51653 13.8498L3.9332 12.8415L4.8332 12.1415L5.57487 11.5582L5.4582 10.6165C5.4332 10.3582 5.41653 10.1665 5.41653 9.99984C5.41653 9.83317 5.4332 9.6415 5.4582 9.3915L5.57487 8.44984L4.8332 7.8665L3.9332 7.1665L4.51653 6.15817L5.57487 6.58317L6.44153 6.93317L7.19153 6.3665C7.54987 6.09984 7.89153 5.89984 8.2332 5.75817L9.11653 5.39984L9.24987 4.45817L9.41653 3.33317H10.5749L10.7332 4.45817L10.8665 5.39984L11.7499 5.75817C12.1082 5.90817 12.4415 6.09984 12.7749 6.34984L13.5332 6.93317L14.4165 6.57484L15.4749 6.14984L16.0582 7.15817L15.1665 7.8665L14.4249 8.44984L14.5415 9.3915ZM9.99987 6.6665C8.1582 6.6665 6.66653 8.15817 6.66653 9.99984C6.66653 11.8415 8.1582 13.3332 9.99987 13.3332C11.8415 13.3332 13.3332 11.8415 13.3332 9.99984C13.3332 8.15817 11.8415 6.6665 9.99987 6.6665ZM9.99987 11.6665C9.0832 11.6665 8.3332 10.9165 8.3332 9.99984C8.3332 9.08317 9.0832 8.33317 9.99987 8.33317C10.9165 8.33317 11.6665 9.08317 11.6665 9.99984C11.6665 10.9165 10.9165 11.6665 9.99987 11.6665Z" fill="#3A3541" fill-opacity="0.87"/>
</svg>
